<svg xmlns="http://www.w3.org/2000/svg" version="1.1" x="0" y="0" viewBox="0 0 143.5 29" xml:space="preserve"><style type="text/css">.st0{fill:#CCCCCC;} .st1{fill:#00653B;}.st2{fill:#FFFFFF;}.st3{fill:#DBE8C4;}.st4{fill:none;stroke:#E6E6E6;stroke-width:2;stroke-miterlimit:10;}.st5{fill:none;stroke:#00653B;stroke-width:4;stroke-linecap:round;stroke-miterlimit:10;}.st6{fill:none;stroke:#B9D3C6;stroke-width:4;stroke-linecap:round;stroke-miterlimit:10;}.st7{fill:none;stroke:#7FB19B;stroke-width:4;stroke-linecap:round;stroke-miterlimit:10;}.st8{fill:none;stroke:#489375;stroke-width:4;stroke-linecap:round;stroke-miterlimit:10;}.st9{fill:none;stroke:#007A56;stroke-width:4;stroke-linecap:round;stroke-miterlimit:10;}.st10{fill:#007A56;}.st11{fill:#489375;}.st12{fill:#7FB19B;}.st13{fill:#B9D3C6;}.st14{fill:#333333;}.st15{fill:none;stroke:#489375;stroke-miterlimit:10;}.st16{fill:none;stroke:#00653B;stroke-miterlimit:10;}.st17{fill:none;}.st18{fill:none;stroke:#E6E6E6;stroke-miterlimit:10;}.st19{fill:none;stroke:#B9D3C6;stroke-width:3;stroke-linecap:round;stroke-miterlimit:10;}.st20{fill:none;stroke:#7FB19B;stroke-width:2.5353;stroke-linecap:round;stroke-miterlimit:10;}.st21{fill:none;stroke:#489375;stroke-width:3;stroke-linecap:round;stroke-miterlimit:10;}.st22{fill:none;stroke:#007A56;stroke-width:3;stroke-linecap:round;stroke-miterlimit:10;}.st23{fill:none;stroke:#00653B;stroke-width:3;stroke-linecap:round;stroke-miterlimit:10;}.st24{fill:none;stroke:#FFFFFF;stroke-miterlimit:10;}.st25{fill:none;stroke:#489375;stroke-width:2;stroke-miterlimit:10;}.st26{fill:none;stroke:#00653B;stroke-width:2;stroke-miterlimit:10;}</style><path class="st2" d="M38 4.2h-3.5l-0.3 0.3 -6.3 15.8V23l0.3 0.3h2.4l0.3-0.3 1.4-3.5 0.5-0.3h6.8l0.5 0.3 1.4 3.5 0.3 0.3h2.4l0.3-0.3v-2.7L38.2 4.5 38 4.2zM38.5 15.9h-4.6l-0.3-0.3 2.4-6.5h0.3l2.4 6.5L38.5 15.9zM55.9 9.7l-0.3 0.3 -0.3 0.8h-0.3c0 0-1.1-1.4-3.5-1.4 -3.3 0-6 2.7-6 7.1 0 4.4 2.7 7.1 6 7.1 2.4 0 3.5-1.4 3.5-1.4h0.3c0 2.5-1.1 3.5-3 3.5 -1.1 0-1.6-0.3-1.9-0.8l-0.3-0.3H47l-0.3 0.3c0.3 2.4 2.4 4.1 5.7 4.1 3.8 0 6.8-2.2 6.8-7.1v-12l-0.3-0.3H55.9zM52.4 20.3c-2.2 0-3-1.6-3-3.8 0-2.2 0.8-3.8 3-3.8 2.2 0 3 1.6 3 3.8C55.4 18.7 54.6 20.3 52.4 20.3M69.5 9.7c-2.4 0-3 1.1-3 1.1h-0.3L66 9.9l-0.3-0.3h-3l-0.3 0.3V23l0.3 0.3H66l0.3-0.3v-6.5c0-2.5 0.8-3.5 3-3.5h1.9l0.3-0.3V9.9l-0.3-0.3H69.5z"/><polygon class="st2" points="73.9 4.2 73.6 4.5 73.6 7.2 73.9 7.5 77.2 7.5 77.4 7.2 77.4 4.5 77.2 4.2 "/><polygon class="st2" points="73.9 9.7 73.6 9.9 73.6 23 73.9 23.3 77.2 23.3 77.4 23 77.4 9.9 77.2 9.7 "/><polygon class="st2" points="81 4.2 80.7 4.5 80.7 23 81 23.3 84.2 23.3 84.5 23 84.5 4.5 84.2 4.2 "/><path class="st2" d="M93.2 9.4c-4.3 0-5.7 2.5-5.7 4.1l0.3 0.3H91l0.3-0.3c0.3-0.8 1.1-0.8 1.9-0.8 1.6 0 1.9 0.3 1.9 1.6v0.3l-0.3 0.3c0 0-0.8-0.3-1.9-0.3 -2.2 0-6 0.5-6 4.6 0 2.7 1.9 4.4 4.9 4.4 1.9 0 3-1.1 3-1.1h0.3l0.3 0.5 0.3 0.3h3l0.3-0.3v-7.4C98.9 11.6 97.6 9.4 93.2 9.4M95.1 18.4c0 1.1-1.1 1.9-2.4 1.9 -1.4 0-1.9-0.5-1.9-1.4 0-1.1 0.8-1.6 2.4-1.6 1.1 0 1.6 0.3 1.6 0.3l0.3 0.3V18.4zM109 9.7c-2.4 0-3 1.1-3 1.1h-0.3l-0.3-0.8 -0.3-0.3h-3l-0.3 0.3V23l0.3 0.3h3.3l0.3-0.3v-6.5c0-2.5 0.8-3.5 3-3.5h1.9l0.3-0.3V9.9l-0.3-0.3H109z"/><polygon class="st2" points="113.3 4.2 113.1 4.5 113.1 7.2 113.3 7.5 116.6 7.5 116.9 7.2 116.9 4.5 116.6 4.2 "/><polygon class="st2" points="113.3 9.7 113.1 9.9 113.1 23 113.3 23.3 116.6 23.3 116.9 23 116.9 9.9 116.6 9.7 "/><path class="st2" d="M125.6 9.7l-0.3-0.3V6.9L125 6.7h-3.3l-0.3 0.3v2.5l-0.3 0.3h-1.9L119 9.9v2.7l0.3 0.3h1.9l0.3 0.3v6c0 3 2.2 4.1 4.6 4.1h2.4l0.3-0.3v-2.7l-0.3-0.3h-2.4c-0.5 0-0.8-0.3-0.8-0.8v-6l0.3-0.3h3l0.3-0.3V9.9l-0.3-0.3H125.6zM143.2 9.7h-2.4l-0.3 0.3 -3.3 9.3H137l-3.3-9.3 -0.3-0.3H131l-0.3 0.3v2.7l4.4 10.6v0.3c-0.3 0.8-0.5 1.1-1.9 1.1h-1.4l-0.3 0.3v2.7l0.3 0.3h1.4c3.8 0 4.9-1.6 6-4.4l4.4-10.9V9.9L143.2 9.7zM12.4 0h-5C3.3 0 0 3.3 0 7.4V20c0 4.1 3.3 7.4 7.4 7.4h5c4.1 0 7.4-3.3 7.4-7.4V7.4C19.8 3.3 16.5 0 12.4 0M16.1 20c0 2-1.6 3.7-3.7 3.7h-1.7l-0.2-0.2v-2.3l1.3-0.7 0.1-0.3V9l-0.1-0.2L9.9 7.1 8 8.8 8 9l0 11.2 0.2 0.3 1.2 0.7v2.3l-0.2 0.2H7.4c-2 0-3.7-1.6-3.7-3.7V7.4c0-2 1.6-3.7 3.7-3.7h5c2 0 3.7 1.6 3.7 3.7V20z"/></svg>